<svg xmlns="http://www.w3.org/2000/svg" width="384" height="170" viewBox="0 0 384 170"><g id="others"><path id="12" d="M 28.272,158.750 C 27.737,158.062 25.428,144.468 23.141,128.541 C 20.854,112.614 18.536,99.136 17,92 C 17,92 29.393,92 29.393,92 C 43.370,92 43,91.782 43,99.998 C 43,102.777 43.493,104.998 44.160,105.220 C 44.968,105.489 45.342,110.221 45.393,120.803 C 45.433,129.161 45.757,136 46.113,136 C 46.469,136 47.084,140.738 47.479,146.529 C 48.006,154.258 47.872,157.449 46.976,158.529 C 45.382,160.449 29.739,160.634 28.272,158.750" stroke="#FFFFFF" fill="#FFFFFF" stroke-width="1" />
  <path id="12" d="M 86.994,158.250 C 86.975,150.098 89.558,120.980 90.032,124 C 90.399,126.338 90.842,123.895 91.365,116.638 C 92.231,104.629 92.608,103 94.518,103 C 96.082,103 100.605,97.819 101.498,95.005 C 102.060,93.236 103.006,93 109.536,93 C 109.536,93 116.937,93 116.937,93 C 116.937,93 116.392,101.250 116.392,101.250 C 115.869,109.162 109.389,157.166 108.495,159.750 C 108.186,160.644 105.059,161 97.531,161 C 97.531,161 87,161 87,161 C 87,161 86.994,158.250 86.994,158.250" stroke="#FFFFFF" fill="#FFFFFF" stroke-width="1" />
  <path id="12" d="M 80.635,94.141 C 78.145,91.542 77.924,90.702 78.198,84.891 C 78.480,78.923 78.352,78.479 76.257,78.181 C 74.576,77.942 73.486,78.756 71.908,81.431 C 71.908,81.431 69.802,85 69.802,85 C 69.802,85 42.151,84.968 42.151,84.968 C 42.151,84.968 14.500,84.937 14.500,84.937 C 14.500,84.937 11.614,82.399 11.614,82.399 C 6.411,77.824 8.187,69.290 15.234,65.004 C 16.953,63.959 18.697,63.313 19.110,63.568 C 20.482,64.416 21.469,61.561 21.485,56.701 C 21.499,52.254 21.858,51.570 26.379,47.359 C 30.754,43.284 31.632,42.870 34.879,43.355 C 43.751,44.680 43.311,44.808 44.194,40.646 C 45.017,36.770 48.511,30.891 49.805,31.206 C 50.187,31.299 52.403,31.028 54.729,30.603 C 59.947,29.650 64.897,31.147 67.882,34.580 C 69.525,36.469 70.641,36.935 72.291,36.420 C 73.506,36.041 74.756,35.333 75.070,34.847 C 75.384,34.361 77.124,33.538 78.938,33.018 C 84.755,31.350 92,36.055 92,41.500 C 92,42.630 92.682,44.529 93.516,45.720 C 94.942,47.756 95.237,47.798 98.484,46.442 C 103.180,44.480 106.892,44.636 110.696,46.956 C 116.177,50.298 117.109,52.630 115.919,60.021 C 115.122,64.973 115.165,66.555 116.107,66.869 C 119.115,67.872 124.046,73.722 124.646,77 C 122.365,79.386 122.365,83.697 121.097,85 C 121.097,85 112.074,85 112.074,85 C 112.074,85 103.051,85 103.051,85 C 103.051,85 101.469,81.939 101.469,81.939 C 100.207,79.499 99.339,78.941 97.193,79.189 C 94.568,79.492 94.508,79.648 94.818,85.374 C 95.103,90.644 94.853,91.544 92.381,94.124 C 88.676,97.991 84.330,97.998 80.635,94.141M 47.171,80.345 C 49.624,78.125 49.475,75 46.720,70.912 C 42.784,65.071 36.583,63.476 29.432,66.464 C 25.532,68.093 22.669,73.321 23.194,77.853 C 23.430,79.893 24.122,80.572 26.213,80.813 C 28.502,81.077 29.204,80.531 30.716,77.313 C 31.914,74.764 33.279,73.391 34.836,73.170 C 37.171,72.839 41,75.420 41,77.326 C 41,78.399 43.947,82 44.826,82 C 45.110,82 46.165,81.255 47.171,80.345M 109.464,73.040 C 113.041,69.088 108.987,60.146 102.364,57.379 C 96.130,54.774 87.701,56.250 83.808,60.627 C 81.352,63.389 79.926,70.516 81.420,72.560 C 83.303,75.135 87.229,74.013 88.125,70.643 C 89.243,66.439 91.892,64 95.341,64 C 98.602,64 103,67.357 103,69.846 C 103,71.401 105.793,75 107,75 C 107.380,75 108.488,74.118 109.464,73.040M 48.743,60.750 C 49.286,60.062 50.163,58.150 50.690,56.500 C 51.227,54.819 52.848,52.915 54.377,52.170 C 56.717,51.030 57.456,51.069 59.558,52.446 C 60.906,53.329 62.798,55.728 63.762,57.776 C 66.843,64.320 71.949,61.872 70.568,54.513 C 67.952,40.571 45.187,40.729 43.313,54.702 C 43.003,57.013 43.016,59.601 43.343,60.452 C 44.057,62.312 47.364,62.494 48.743,60.750" stroke="#FFFFFF" fill="#FFFFFF" stroke-width="1" />
  <path id="45" d="M 122.556,98.500 C 123.665,90.808 125.131,88.459 124.428,95.500 C 124.099,98.800 123.380,101.950 122.832,102.500 C 122.169,103.165 122.077,101.824 122.556,98.500" stroke="#FDF2F5" fill="#FDF2F5" stroke-width="1" />
  <path id="45" d="M 3.630,81.750 C 1.538,73.943 4.696,64.293 10.454,60.895 C 12.863,59.473 14,58.073 14,56.527 C 14,52.731 16.921,45.692 19.700,42.791 C 22.801,39.554 30.651,36.713 35.223,37.173 C 37.999,37.452 38.671,37.065 39.861,34.500 C 42.083,29.711 45.940,26.209 50.822,24.545 C 57.085,22.411 59.880,22.598 65.581,25.531 C 69.137,27.361 71.470,27.919 74.346,28.651 C 71.324,30.204 71.053,30.174 67.888,27.920 C 65.499,26.219 62.914,25.479 58.543,25.244 C 50.590,24.817 45.536,27.572 42,34.263 C 42,34.263 39.500,38.994 39.500,38.994 C 39.500,38.994 34.136,38.997 34.136,38.997 C 24.226,39.002 16.050,46.466 15.962,55.588 C 15.929,59.010 15.420,59.849 11.897,62.287 C 5.588,66.653 2.550,75.056 4.975,81.435 C 5.511,82.846 5.564,84 5.092,84 C 4.620,84 3.962,82.988 3.630,81.750" stroke="#FDF2F5" fill="#FDF2F5" stroke-width="1" />
  <path id="12" d="M 256,138.605 C 256,136.214 260.040,124 260.831,124 C 261.620,124 265,135.686 265,138.414 C 265,139.627 263.942,140 260.500,140 C 257.318,140 256,139.591 256,138.605" stroke="#FFFFFF" fill="#FFFFFF" stroke-width="1" />
  <path id="45" d="M 26.674,160.250 C 26.168,159.394 26.215,159.688 21.520,127.500 C 19.595,114.300 17.782,102.164 17.491,100.531 C 17.135,98.532 17.293,97.893 17.973,98.573 C 18.529,99.129 20.854,112.614 23.141,128.541 C 25.428,144.468 27.737,158.062 28.272,158.750 C 29.467,160.285 45.578,160.492 48.457,160.069 C 47.776,161.171 27.320,161.341 26.674,160.250" stroke="#FDF2F5" fill="#FDF2F5" stroke-width="1" />
  <path id="12" d="M 135,48.460 C 130.519,46.901 130.134,44.737 133.671,40.990 C 137.145,37.309 138.275,37.262 140.972,40.691 C 145.118,45.962 141.469,50.711 135,48.460" stroke="#FFFFFF" fill="#FFFFFF" stroke-width="1" />
  <path id="12" d="M 304.750,131.429 C 304.337,131.010 304,127.591 304,123.833 C 304,116.164 303.918,116.223 311.975,118.080 C 316.940,119.224 317.962,120.254 317.985,124.139 C 318.009,128.331 315.038,131.130 309.961,131.695 C 307.508,131.968 305.163,131.848 304.750,131.429" stroke="#FFFFFF" fill="#FFFFFF" stroke-width="1" />
  <path id="12" d="M 178.838,149.250 C 178.621,148.288 178.610,140.863 178.815,132.750 C 178.815,132.750 179.188,118 179.188,118 C 179.188,118 184.017,118 184.017,118 C 192.535,118 197.314,124.296 197.262,135.448 C 197.231,142.050 194.446,148.880 191.295,150.078 C 189.961,150.585 186.702,151 184.052,151 C 180.280,151 179.147,150.620 178.838,149.250" stroke="#FFFFFF" fill="#FFFFFF" stroke-width="1" />
  <path id="45" d="M 45.070,131.750 C 45.124,128.458 45.334,127.951 46,129.500 C 47.198,132.289 47.198,136 46,136 C 45.450,136 45.031,134.087 45.070,131.750" stroke="#FDF2F5" fill="#FDF2F5" stroke-width="1" />
  <path id="12" d="M 112.352,31.030 C 111.171,30.540 109.909,29.661 109.547,29.076 C 108.628,27.589 113.864,21 115.964,21 C 118.828,21 121.174,24.457 120.820,28.156 C 120.540,31.076 120.120,31.526 117.500,31.710 C 115.850,31.826 113.533,31.520 112.352,31.030" stroke="#FFFFFF" fill="#FFFFFF" stroke-width="1" />
  <path id="45" d="M 119.834,122.001 C 119.157,119.970 120.188,113 121.166,113 C 121.737,113 121.845,114.914 121.433,117.750 C 120.678,122.952 120.399,123.695 119.834,122.001" stroke="#FDF2F5" fill="#FDF2F5" stroke-width="1" />
  <path id="45" d="M 42.799,98.750 C 42.433,92.716 42.568,91.201 43.388,92.083 C 44.386,93.156 45.119,105 44.187,105 C 43.632,105 43.007,102.188 42.799,98.750" stroke="#FDF2F5" fill="#FDF2F5" stroke-width="1" />
  <path id="45" d="M 90.129,116.441 C 89.993,104.759 90.324,103.701 95.026,100.804 C 96.415,99.948 98.430,97.617 99.503,95.624 C 99.503,95.624 101.455,92 101.455,92 C 101.455,92 110.202,92 110.202,92 C 110.202,92 118.950,92 118.950,92 C 118.950,92 118.414,94.750 118.414,94.750 C 118.119,96.262 117.471,99.750 116.973,102.500 C 116.152,107.036 116.112,106.827 116.541,100.250 C 116.541,100.250 117.014,93 117.014,93 C 117.014,93 109.574,93 109.574,93 C 103.006,93 102.060,93.235 101.498,95.005 C 100.577,97.906 96.062,103 94.411,103 C 93.635,103 92.946,103.113 92.881,103.250 C 92.816,103.387 92.199,108.900 91.510,115.500 C 91.510,115.500 90.257,127.500 90.257,127.500 C 90.257,127.500 90.129,116.441 90.129,116.441" stroke="#FDF2F5" fill="#FDF2F5" stroke-width="1" />
  <path id="45" d="M 16.530,136.250 C 11.770,103.914 9.806,92.471 8.809,91.269 C 7.567,89.773 8.338,88.472 9.895,89.435 C 11.174,90.226 11.285,90.833 15.893,122.250 C 17.970,136.413 19.353,148 18.965,148 C 18.577,148 17.481,142.712 16.530,136.250" stroke="#FDF2F5" fill="#FDF2F5" stroke-width="1" />
  <path id="45" d="M 105.136,10.750 C 104.939,6.775 101.862,4.241 96.322,3.493 C 89.582,2.583 88.812,2.171 93.685,2.079 C 95.987,2.036 99.001,2.430 100.383,2.955 C 103.641,4.194 106.273,8.262 105.713,11.192 C 105.321,13.242 105.257,13.193 105.136,10.750" stroke="#FDF2F5" fill="#FDF2F5" stroke-width="1" />
  <path id="12" d="M 93.239,16.334 C 92.545,16.054 91.501,14.936 90.919,13.849 C 89.413,11.036 91.434,9 95.731,9 C 99.033,9 99.180,9.145 98.528,11.744 C 97.403,16.228 95.999,17.446 93.239,16.334" stroke="#FFFFFF" fill="#FFFFFF" stroke-width="1" />
</g><g id="popcorn 2"><path id="45" d="M 42.655,80.171 C 41.745,79.165 41,77.885 41,77.326 C 41,75.420 37.171,72.839 34.836,73.170 C 33.279,73.391 31.914,74.764 30.716,77.313 C 29.204,80.531 28.502,81.077 26.213,80.813 C 24.122,80.572 23.430,79.893 23.194,77.853 C 22.669,73.321 25.532,68.093 29.432,66.464 C 36.583,63.476 42.784,65.071 46.720,70.912 C 49.475,75 49.624,78.125 47.171,80.345 C 44.883,82.415 44.679,82.407 42.655,80.171M 29.438,76.494 C 32.257,69.746 40.461,69.911 42.221,76.750 C 42.789,78.956 43.657,80 44.922,80 C 50.120,80 46.903,70.674 40.652,67.621 C 37.380,66.023 36.232,65.913 32.976,66.889 C 28.601,68.200 24,73.080 24,76.410 C 24,81.248 27.430,81.301 29.438,76.494" stroke="#FDF2F5" fill="#FDF2F5" stroke-width="1" />
  <path id="48" d="M 134,52.825 C 125.943,50.534 124.696,45.065 130.668,38.210 C 135.128,33.090 138.505,32.692 143.046,36.750 C 145.240,38.710 146.285,40.707 146.687,43.702 C 147.187,47.427 146.904,48.250 144.202,50.952 C 140.979,54.175 139.624,54.424 134,52.825M 142.794,45.327 C 143.122,43.163 139.514,38 137.674,38 C 135.788,38 130.818,43.820 131.175,45.611 C 131.354,46.508 133.075,47.790 135,48.460 C 139.069,49.876 142.302,48.576 142.794,45.327" stroke="#DF2145" fill="#DF2145" stroke-width="1" />
  <path id="48" d="M 112,35.400 C 104.030,32.916 103.018,28.884 108.546,21.644 C 111.509,17.764 112.637,17 115.411,17 C 125.349,17 129.335,31.874 120.397,35.608 C 118.564,36.374 116.937,36.955 116.782,36.901 C 116.627,36.847 114.475,36.171 112,35.400M 120.820,28.156 C 121.174,24.457 118.828,21 115.964,21 C 113.864,21 108.628,27.589 109.547,29.076 C 110.574,30.737 114.207,31.941 117.500,31.710 C 120.120,31.526 120.540,31.076 120.820,28.156" stroke="#DF2145" fill="#DF2145" stroke-width="1" />
  <path id="48" d="M 44.924,59.409 C 43.975,58.265 43.964,57.062 44.876,54.018 C 47.404,45.581 58.683,42.447 64.941,48.443 C 67.913,51.290 70.470,57.430 69.403,59.156 C 68.206,61.093 65.195,59.914 64.534,57.250 C 62.281,48.173 51.106,47.587 49.442,56.459 C 48.720,60.305 46.741,61.598 44.924,59.409" stroke="#DF2145" fill="#DF2145" stroke-width="1" />
  <path id="45" d="M 19.986,57.667 C 20.578,50.616 22.322,47.335 26.882,44.693 C 31.239,42.169 30.767,43.548 25.750,48 C 21.806,51.500 21.500,52.136 21.500,56.836 C 21.500,59.621 21.041,62.359 20.480,62.920 C 19.786,63.614 19.628,61.932 19.986,57.667" stroke="#FDF2F5" fill="#FDF2F5" stroke-width="1" />
  <path id="48" d="M 24.667,79.333 C 21.789,76.455 26.976,68.687 32.976,66.889 C 36.232,65.913 37.380,66.023 40.652,67.621 C 46.903,70.674 50.120,80 44.922,80 C 43.657,80 42.789,78.956 42.221,76.750 C 40.461,69.911 32.257,69.746 29.438,76.494 C 28.067,79.775 26.212,80.878 24.667,79.333" stroke="#DF2145" fill="#DF2145" stroke-width="1" />
  <path id="45" d="M 104.655,73.171 C 103.745,72.165 103,70.669 103,69.846 C 103,67.357 98.602,64 95.341,64 C 91.892,64 89.243,66.439 88.125,70.643 C 87.229,74.013 83.303,75.135 81.420,72.560 C 79.926,70.516 81.352,63.389 83.808,60.627 C 87.701,56.250 96.130,54.774 102.364,57.379 C 108.987,60.146 113.041,69.088 109.464,73.040 C 107.275,75.459 106.739,75.473 104.655,73.171M 108.833,72.334 C 109.906,70.418 108.846,65.940 106.457,62.294 C 104.642,59.524 99.387,57 95.433,57 C 88.662,57 82,63.417 86.813,69.786 C 87.210,66.339 92.292,62 95.931,62 C 99.035,62 104,66.011 104,68.518 C 104,70.643 105.828,74 106.985,74 C 107.488,74 108.320,73.250 108.833,72.334" stroke="#FDF2F5" fill="#FDF2F5" stroke-width="1" />
  <path id="45" d="M 82.213,97.516 C 77.757,95.549 75.453,90.188 77.022,85.434 C 79.038,79.326 74.908,77.585 72.436,83.500 C 72.436,83.500 70.973,87 70.973,87 C 70.973,87 42.059,87 42.059,87 C 42.059,87 13.145,87 12.318,82.829 C 14.574,84.948 15.283,85 42.216,85 C 42.216,85 69.802,85 69.802,85 C 69.802,85 71.908,81.431 71.908,81.431 C 73.486,78.756 74.576,77.942 76.257,78.181 C 78.352,78.479 78.480,78.923 78.198,84.891 C 77.924,90.702 78.145,91.542 80.635,94.141 C 84.330,97.998 88.676,97.991 92.381,94.124 C 94.853,91.544 95.103,90.644 94.818,85.374 C 94.508,79.648 94.568,79.492 97.193,79.189 C 99.339,78.941 100.207,79.499 101.469,81.939 C 101.469,81.939 103.051,85 103.051,85 C 103.051,85 112.074,85 112.074,85 C 112.074,85 121.097,85 124.292,79.664 C 124.604,80.168 124.160,82.025 123.305,83.790 C 123.305,83.790 121.750,87 121.750,87 C 121.750,87 111.889,87 111.889,87 C 111.889,87 102.027,87 102.027,87 C 102.027,87 100.564,83.500 100.564,83.500 C 98.159,77.744 94.149,79.201 95.781,85.237 C 98.194,94.157 90.460,101.156 82.213,97.516" stroke="#FDF2F5" fill="#FDF2F5" stroke-width="1" />
  <path id="48" d="M 105.035,72.066 C 104.466,71.002 104,69.405 104,68.518 C 104,66.011 99.035,62 95.931,62 C 92.292,62 87.210,66.339 82,69.938 C 82,63.417 88.662,57 95.433,57 C 101.881,57 107.014,61.077 108.917,67.711 C 110.326,72.623 107.206,76.123 105.035,72.066" stroke="#DF2145" fill="#DF2145" stroke-width="1" />
  <path id="45" d="M 43.343,60.452 C 43.016,59.601 43.003,57.013 43.313,54.702 C 45.187,40.729 67.952,40.571 70.568,54.513 C 71.949,61.872 66.843,64.320 63.762,57.776 C 62.798,55.728 60.906,53.329 59.558,52.446 C 57.456,51.069 56.717,51.030 54.377,52.170 C 52.848,52.915 51.227,54.819 50.690,56.500 C 50.163,58.150 49.286,60.062 48.743,60.750 C 47.364,62.494 44.057,62.312 43.343,60.452M 49.442,56.459 C 51.106,47.587 62.281,48.173 64.534,57.250 C 65.195,59.914 68.206,61.093 69.403,59.156 C 70.470,57.430 67.913,51.290 64.941,48.443 C 58.683,42.447 47.404,45.581 44.876,54.018 C 43.964,57.062 43.975,58.265 44.924,59.409 C 46.741,61.598 48.720,60.305 49.442,56.459" stroke="#FDF2F5" fill="#FDF2F5" stroke-width="1" />
  <path id="48" d="M 91.378,21.555 C 84.701,18.666 82.719,10.190 87.584,5.325 C 89.873,3.036 90.724,2.807 95.055,3.320 C 104.515,4.440 106.862,7.982 103.116,15.482 C 99.777,22.169 96.598,23.813 91.378,21.555M 98.904,14.187 C 99.974,12.090 100.546,9.906 100.175,9.332 C 99.079,7.637 92.041,6.721 90.424,8.063 C 88.384,9.756 88.668,13.668 91,16 C 94.116,19.116 96.691,18.525 98.904,14.187" stroke="#DF2145" fill="#DF2145" stroke-width="1" />
  <path id="45" d="M 92.136,41.973 C 91.811,35.943 84.956,31.292 78.938,33.018 C 77.124,33.538 75.384,34.361 75.070,34.847 C 73.504,37.273 70.246,36.952 67.235,34.074 C 63.556,30.558 58.722,29.441 53.389,30.875 C 49.883,31.817 49.691,31.776 51.441,30.460 C 53.745,28.727 60.241,28.542 63.316,30.122 C 64.517,30.739 66.706,32.368 73.845,34.111 C 78.033,31.129 82.008,30.558 86.253,32.332 C 90.257,34.005 93.374,38.836 92.697,42.318 C 92.318,44.266 92.258,44.229 92.136,41.973" stroke="#FDF2F5" fill="#FDF2F5" stroke-width="1" />
  <path id="45" d="M 91,16 C 88.668,13.668 88.384,9.756 90.424,8.063 C 92.041,6.721 99.079,7.637 100.175,9.332 C 100.546,9.906 99.974,12.090 98.904,14.187 C 96.691,18.525 94.116,19.116 91,16M 96.797,15.744 C 97.370,15.053 98.149,13.253 98.528,11.744 C 99.180,9.145 99.033,9 95.731,9 C 91.434,9 89.413,11.036 90.919,13.849 C 91.868,15.623 93.339,16.696 95.128,16.921 C 95.473,16.964 96.224,16.435 96.797,15.744" stroke="#FDF2F5" fill="#FDF2F5" stroke-width="1" />
  <path id="45" d="M 115.508,64.125 C 115.779,62.269 116,59.591 116,58.175 C 116,56.195 116.273,55.873 117.181,56.781 C 118.089,57.689 117.976,59.064 116.689,62.731 C 115.328,66.609 115.108,66.870 115.508,64.125" stroke="#FDF2F5" fill="#FDF2F5" stroke-width="1" />
  </g><g id="popcorn 1"><path id="3" d="M 23.111,164.634 C 22.487,163.883 20.617,154.095 18.956,142.884 C 11.251,90.886 11.254,90.898 9.131,88.639 C 6.483,85.821 3.994,79.801 4.022,76.282 C 4.059,71.548 7.596,65.263 11.897,62.287 C 15.405,59.859 15.929,59.002 15.962,55.636 C 16.052,46.477 24.195,39.002 34.088,38.997 C 34.088,38.997 39.500,38.994 39.500,38.994 C 39.500,38.994 42,34.263 42,34.263 C 45.536,27.572 50.590,24.817 58.543,25.244 C 62.916,25.479 65.499,26.219 67.891,27.922 C 71.082,30.194 71.316,30.219 74.632,28.638 C 83.575,24.373 94.391,29.336 96.942,38.876 C 97.566,41.208 98.024,41.401 102.317,41.137 C 104.898,40.978 108.509,41.343 110.340,41.947 C 117.065,44.166 122.355,52.689 121.873,60.526 C 121.653,64.098 122.129,65.382 124.791,68.414 C 126.540,70.406 128.258,73.181 128.609,74.579 C 129.604,78.542 128.421,84.601 125.984,88.023 C 124.345,90.325 123.275,94.454 121.890,103.820 C 114.512,153.730 112.926,163.384 111.906,164.613 C 110.211,166.655 24.805,166.675 23.111,164.634M 48.296,159 C 48.184,157.625 47.400,145.250 46.553,131.500 C 45.706,117.750 44.747,103.238 44.421,99.250 C 44.421,99.250 43.829,92 43.829,92 C 43.829,92 30.415,92 30.415,92 C 30.415,92 17,92 17,92 C 17,92 17,94.523 17,94.523 C 17,95.910 18.587,107.723 20.527,120.773 C 22.467,133.823 24.510,147.875 25.068,152 C 25.626,156.125 26.281,160.078 26.523,160.784 C 26.853,161.747 29.656,161.997 37.732,161.784 C 37.732,161.784 48.500,161.500 48.500,161.500 C 48.500,161.500 48.296,159 48.296,159M 109.773,152 C 110.478,147.325 112.787,132.025 114.905,118 C 117.023,103.975 118.431,92.143 118.035,91.707 C 117.639,91.271 113.531,91.046 108.907,91.207 C 101.096,91.479 100.477,91.657 100.185,93.714 C 99.854,96.039 95.783,100.745 92.515,102.580 C 90.497,103.713 90.541,103.305 87.426,150.285 C 87.426,150.285 86.711,161.071 86.711,161.071 C 86.711,161.071 97.601,160.785 97.601,160.785 C 97.601,160.785 108.490,160.500 108.490,160.500 C 108.490,160.500 109.773,152 109.773,152M 92.723,96.427 C 95.535,94.608 96.933,89.495 95.781,85.237 C 94.149,79.201 98.159,77.744 100.564,83.500 C 100.564,83.500 102.027,87 102.027,87 C 102.027,87 111.899,87 111.899,87 C 111.899,87 121.772,87 121.772,87 C 121.772,87 123.479,83.403 123.479,83.403 C 125.967,78.160 124.844,73.878 119.863,69.615 C 115.912,66.233 115.832,66.039 116.956,62.633 C 119.045,56.303 115.905,49.519 109.316,46.125 C 106.376,44.611 102.634,44.708 98.573,46.405 C 94.525,48.096 93.002,47.044 92.996,42.550 C 92.990,37.995 89.731,33.396 85.524,32.008 C 81.338,30.626 77.827,31.275 68.179,33.741 C 64.389,30.208 61.671,29 57.516,29 C 50.549,29 45.776,33.198 44.176,40.733 C 43.488,43.973 43.035,44.457 40.938,44.190 C 39.597,44.020 36.599,43.637 34.277,43.341 C 26.153,42.305 20.002,48.490 19.997,57.700 C 19.994,62.195 19.762,62.627 16.328,64.500 C 14.312,65.600 11.767,67.716 10.672,69.202 C 8.038,72.778 8.087,80.300 10.769,83.893 C 10.769,83.893 12.715,86.500 12.715,86.500 C 12.715,86.500 41.838,86.765 41.838,86.765 C 41.838,86.765 70.961,87.030 70.961,87.030 C 70.961,87.030 72.429,83.515 72.429,83.515 C 74.905,77.588 79.041,79.316 77.022,85.434 C 76.130,88.136 76.210,89.567 77.413,92.447 C 79.931,98.474 86.798,100.259 92.723,96.427" stroke="#E4093E" fill="#E4093E" stroke-width="1" />
  <path id="48" d="M 100.255,93 C 100.576,91.816 102.540,91.485 109.581,91.432 C 109.581,91.432 118.500,91.365 118.500,91.365 C 118.500,91.365 110.032,91.726 110.032,91.726 C 104.952,91.943 101.221,92.570 100.706,93.294 C 100.097,94.150 99.966,94.064 100.255,93" stroke="#DF2145" fill="#DF2145" stroke-width="1" />
  <path id="47" d="M 26.655,161.250 C 26.400,160.837 31.280,160.500 37.500,160.500 C 43.720,160.500 48.600,160.837 48.345,161.250 C 48.090,161.663 43.210,162 37.500,162 C 31.790,162 26.910,161.663 26.655,161.250" stroke="#F37B8F" fill="#F37B8F" stroke-width="1" />
  </g><g id="text 2"><path id="13" d="M 235.500,89.122 C 235.500,89.122 232.500,88.481 232.500,88.481 C 232.500,88.481 232.233,60.991 232.233,60.991 C 231.937,30.539 231.845,30.982 238.441,31.015 C 244.499,31.045 244.454,30.879 245,55.102 C 245,55.102 245.500,77.279 245.500,77.279 C 245.500,77.279 253.097,77.390 253.097,77.390 C 261.841,77.517 264,78.720 264,83.467 C 264,89.064 261.837,90.017 249.421,89.882 C 243.414,89.817 237.150,89.475 235.500,89.122" stroke="#242748" fill="#242748" stroke-width="1" />
  <path id="13" d="M 273.571,88.429 C 272.220,87.078 272,83.074 272,59.904 C 272,59.904 272,32.950 272,32.950 C 272,32.950 274.750,31.888 274.750,31.888 C 277.985,30.638 285.943,31.487 287.629,33.262 C 288.276,33.943 291.160,40.267 294.038,47.315 C 296.916,54.363 299.636,59.763 300.081,59.315 C 300.526,58.867 302.539,54.225 304.554,49 C 311.340,31.405 312.599,30.024 320.644,31.330 C 327.177,32.390 327,31.578 327,60.566 C 327,86.632 326.978,86.901 324.777,88.443 C 322.008,90.383 317.990,90.444 315.441,88.584 C 313.721,87.329 313.443,85.535 313,72.834 C 313,72.834 312.500,58.500 312.500,58.500 C 312.500,58.500 308.159,69.203 308.159,69.203 C 305.771,75.090 303.211,80.411 302.469,81.026 C 301.727,81.641 299.880,81.999 298.364,81.822 C 295.844,81.527 295.185,80.447 290.694,69.250 C 287.992,62.513 285.492,56.999 285.140,56.999 C 284.788,56.999 284.652,63.695 284.839,71.880 C 285.172,86.479 285.135,86.793 282.867,88.381 C 279.931,90.437 275.602,90.460 273.571,88.429" stroke="#242748" fill="#242748" stroke-width="1" />
  <path id="13" d="M 210.750,88.920 C 209.151,87.988 209,85.538 209,60.426 C 209,60.426 209,32.950 209,32.950 C 209,32.950 211.565,31.975 211.565,31.975 C 215.078,30.639 217.277,30.752 219.504,32.380 C 221.251,33.657 221.423,35.722 221.819,60.236 C 221.819,60.236 222.247,86.714 222.247,86.714 C 222.247,86.714 219.901,88.357 219.901,88.357 C 217.262,90.205 213.368,90.445 210.750,88.920" stroke="#242748" fill="#242748" stroke-width="1" />
  <path id="13" d="M 168.441,88.580 C 166.604,87.236 166.500,85.738 166.500,60.630 C 166.500,40.201 166.798,33.801 167.799,32.800 C 169.701,30.897 198.035,30.960 200.343,32.872 C 202.288,34.483 202.589,41.011 200.800,42.800 C 200.090,43.510 196.672,44 192.425,44 C 188.479,44 183.844,44.281 182.125,44.625 C 179.138,45.222 179,45.465 179,50.125 C 179,50.125 179,55 179,55 C 179,55 186.878,55 186.878,55 C 196.005,55 197.455,55.991 197.455,62.224 C 197.455,67.742 195.384,69 186.309,69 C 186.309,69 179,69 179,69 C 179,69 179,78.339 179,78.339 C 179,87.377 178.918,87.716 176.453,88.839 C 173.078,90.377 170.797,90.303 168.441,88.580" stroke="#242748" fill="#242748" stroke-width="1" />
  <path id="13" d="M 351.248,87.750 C 350.700,87.062 350.038,82.225 349.778,77 C 349.306,67.528 349.282,67.455 341.560,51.847 C 337.301,43.238 333.974,35.363 334.167,34.347 C 334.440,32.908 335.590,32.432 339.365,32.191 C 345.360,31.809 347.289,33.342 349.612,40.337 C 352.360,48.609 355.130,54.274 355.979,53.356 C 356.414,52.885 358.256,48.450 360.071,43.500 C 361.886,38.550 364.076,33.918 364.936,33.206 C 367.168,31.360 375.018,32.057 376.375,34.222 C 377.418,35.886 373.805,44.646 364.401,63.251 C 362.379,67.252 362,69.469 362,77.301 C 362,83.201 361.561,87.039 360.800,87.800 C 359.221,89.379 352.519,89.344 351.248,87.750" stroke="#242748" fill="#242748" stroke-width="1" />
  </g><g id="text 1"><path id="13" d="M 351.655,161.171 C 350.397,159.781 350,157.367 350,151.103 C 350,143.119 349.819,142.484 344.172,130.681 C 335.781,113.143 334.448,109.370 335.991,107.511 C 336.708,106.647 338.875,106 341.050,106 C 345.393,106 348.077,108.620 350.077,114.812 C 352.739,123.053 355.187,129 355.918,129 C 356.344,129 358.382,124.387 360.447,118.750 C 362.512,113.113 364.917,107.938 365.792,107.250 C 367.816,105.659 374.227,105.627 375.800,107.200 C 377.922,109.322 377.139,111.871 369.500,127.729 C 369.500,127.729 362,143.298 362,143.298 C 362,143.298 362,151.949 362,151.949 C 362,157.344 361.548,161.052 360.800,161.800 C 358.978,163.622 353.534,163.247 351.655,161.171" stroke="#242748" fill="#242748" stroke-width="1" />
  <path id="13" d="M 239.245,161.846 C 237.194,159.795 237.703,157.311 244.879,134.318 C 254.077,104.848 253.109,106.568 260.706,106.204 C 266.230,105.939 267.054,106.154 268.388,108.204 C 270.390,111.280 284,155.623 284,159.069 C 284,162.118 282.511,163 277.363,163 C 274.125,163 273.719,162.628 271.371,157.500 C 271.371,157.500 268.853,152 268.853,152 C 268.853,152 261.177,152.004 261.177,152.004 C 261.177,152.004 253.500,152.007 253.500,152.007 C 253.500,152.007 251,157.254 251,157.254 C 248.657,162.171 248.248,162.519 244.495,162.796 C 242.246,162.962 239.944,162.545 239.245,161.846M 265,138.414 C 265,135.686 261.620,124 260.831,124 C 260.040,124 256,136.214 256,138.605 C 256,139.591 257.318,140 260.500,140 C 263.942,140 265,139.627 265,138.414" stroke="#242748" fill="#242748" stroke-width="1" />
  <path id="13" d="M 219.200,161.800 C 217.491,160.091 217.491,108.909 219.200,107.200 C 220.598,105.802 226.858,105.624 228.910,106.923 C 230.042,107.640 230.414,112.862 230.797,133.428 C 231.236,157.038 231.134,159.195 229.482,161.020 C 227.450,163.265 221.144,163.744 219.200,161.800" stroke="#242748" fill="#242748" stroke-width="1" />
  <path id="13" d="M 172,161.348 C 165.935,159.350 166,159.502 166,147.317 C 166,140.457 166.458,135.240 167.158,134.119 C 167.853,133.006 167.987,131.512 167.493,130.382 C 166.671,128.500 166.732,111.889 167.572,108.936 C 167.929,107.682 169.901,107.321 177.519,107.118 C 194.523,106.665 202.739,110.865 206.709,122.044 C 207.677,124.770 208.814,127 209.235,127 C 209.656,127 210,130.627 210,135.059 C 210,139.491 209.637,142.893 209.192,142.618 C 208.747,142.343 207.850,144.112 207.198,146.549 C 205.498,152.907 199.951,158.640 193.707,160.494 C 188.949,161.907 175.324,162.443 172,161.348M 191.295,150.078 C 194.446,148.880 197.231,142.050 197.262,135.448 C 197.314,124.296 192.535,118 184.017,118 C 184.017,118 179.188,118 179.188,118 C 179.188,118 178.815,132.750 178.815,132.750 C 178.610,140.863 178.621,148.288 178.838,149.250 C 179.147,150.620 180.280,151 184.052,151 C 186.702,151 189.961,150.585 191.295,150.078" stroke="#242748" fill="#242748" stroke-width="1" />
  <path id="13" d="M 293.200,161.800 C 291.491,160.091 291.491,108.909 293.200,107.200 C 293.992,106.408 298.253,106 305.740,106 C 315.089,106 317.765,106.350 320.982,107.991 C 326.787,110.952 330.259,116.075 330.788,122.460 C 331.353,129.278 329.820,133.812 325.551,137.950 C 325.551,137.950 322.140,141.256 322.140,141.256 C 322.140,141.256 326.757,150.550 326.757,150.550 C 332.039,161.184 331.766,163 324.878,163 C 319.925,163 318.129,161.191 313.475,151.515 C 310.145,144.591 309.561,143.914 307.153,144.193 C 304.578,144.491 304.485,144.734 304,152.500 C 303.725,156.900 303.136,161.062 302.691,161.750 C 301.659,163.345 294.781,163.381 293.200,161.800M 316.211,128.988 C 318.054,126.712 318.549,122.412 317.210,120.306 C 316.792,119.649 314.436,118.647 311.975,118.080 C 303.918,116.223 304,116.164 304,123.833 C 304,127.591 304.337,131.010 304.750,131.429 C 306.275,132.979 314.376,131.254 316.211,128.988" stroke="#242748" fill="#242748" stroke-width="1" />
  <path id="53" d="M 167.500,161 C 165.587,158.886 166.755,158.155 168.792,160.192 C 169.459,160.859 173.884,161.570 178.840,161.807 C 194.821,162.571 203.228,158.142 207.011,146.968 C 207.973,144.127 209.062,142.292 209.432,142.890 C 210.376,144.417 206.424,152.940 203.196,156.342 C 197.933,161.888 194.259,163 181.195,163 C 170.580,163 169.117,162.786 167.500,161" stroke="#343441" fill="#343441" stroke-width="1" />
  <path id="53" d="M 206.709,122.044 C 202.776,110.970 194.369,106.601 177.996,107.119 C 173.085,107.274 168.752,107.086 168.367,106.701 C 167.233,105.567 191.602,105.900 194.685,107.060 C 200.332,109.185 207.047,117.192 209.055,124.192 C 210.428,128.980 208.567,127.276 206.709,122.044" stroke="#343441" fill="#343441" stroke-width="1" />
  </g></svg>